<svg width="72" height="72" viewBox="0 0 72 72" fill="none" xmlns="http://www.w3.org/2000/svg">
<path d="M57.2539 17.7914L53.3813 61.1741L35.974 66L18.6145 61.1809L14.746 17.7914H57.2539Z" fill="#E44D26"/>
<path d="M36 62.3113L50.066 58.4116L53.3754 21.3391H36V62.3113Z" fill="#F16529"/>
<path d="M35.9999 31.9823H28.4718L28.9581 37.4316H35.9999V42.7531H24.0913L22.656 26.6607H35.9999V31.9823Z" fill="#EBEBEB"/>
<path d="M24.3292 45.414H29.6712L30.0501 49.6582L35.9767 51.2585L36 51.2523V56.7889L35.9756 56.7957L25.0748 53.7696L24.3292 45.414Z" fill="#EBEBEB"/>
<path d="M21.4053 6H18.7011V14.0911H21.4054V11.3817H23.8793V14.0911H26.5836V6H23.8792V8.67187H21.4053V6Z" fill="white"/>
<path d="M27.7591 8.68313H30.1399L30.14 14.0911H32.8445V8.68313H35.2263V6H27.7591V8.68313Z" fill="white"/>
<path d="M36.4114 6H39.2313L40.9659 8.84297L42.6988 6H45.5197V14.0911H42.8265V10.0807L40.9659 12.9575H40.9194L39.0575 10.0807V14.0911H36.4114V6Z" fill="white"/>
<path d="M49.5708 6H46.8656V14.0911H53.3738V11.4166H49.5708V6Z" fill="white"/>
<path d="M35.9815 31.9823V26.6607H49.3121L48.8356 31.9823H35.9815Z" fill="white"/>
<path d="M42.5344 42.7532H35.9815V37.4317H48.3514L48.2215 38.8607L46.891 53.7696L35.9815 56.7932V51.2568L41.9167 49.6548L42.5344 42.7532Z" fill="white"/>
</svg>
