<svg width="110" height="110" viewBox="0 0 110 110" fill="none" xmlns="http://www.w3.org/2000/svg">
<path d="M35.292 46.28C34.4813 44.7867 33.308 43.656 31.772 42.888C30.2787 42.0773 28.508 41.672 26.46 41.672C22.9187 41.672 20.0813 42.8453 17.948 45.192C15.8147 47.496 14.748 50.5893 14.748 54.472C14.748 58.6107 15.8573 61.8533 18.076 64.2C20.3373 66.504 23.4307 67.656 27.356 67.656C30.044 67.656 32.3053 66.9733 34.14 65.608C36.0173 64.2427 37.3827 62.28 38.236 59.72H24.348V51.656H48.156V61.832C47.3453 64.5627 45.9587 67.1013 43.996 69.448C42.076 71.7947 39.6227 73.6933 36.636 75.144C33.6493 76.5947 30.2787 77.32 26.524 77.32C22.0867 77.32 18.1187 76.36 14.62 74.44C11.164 72.4773 8.45467 69.768 6.492 66.312C4.572 62.856 3.612 58.9093 3.612 54.472C3.612 50.0347 4.572 46.088 6.492 42.632C8.45467 39.1333 11.164 36.424 14.62 34.504C18.076 32.5413 22.0227 31.56 26.46 31.56C31.836 31.56 36.3587 32.8613 40.028 35.464C43.74 38.0667 46.1933 41.672 47.388 46.28H35.292ZM88.458 46.536C88.458 49.1387 87.8607 51.528 86.666 53.704C85.4713 55.8373 83.6367 57.5653 81.162 58.888C78.6873 60.2107 75.6153 60.872 71.946 60.872H65.162V77H54.218V32.072H71.946C75.53 32.072 78.5593 32.6907 81.034 33.928C83.5087 35.1653 85.3647 36.872 86.602 39.048C87.8393 41.224 88.458 43.72 88.458 46.536ZM71.114 52.168C73.2047 52.168 74.762 51.6773 75.786 50.696C76.81 49.7147 77.322 48.328 77.322 46.536C77.322 44.744 76.81 43.3573 75.786 42.376C74.762 41.3947 73.2047 40.904 71.114 40.904H65.162V52.168H71.114ZM99.2755 77.512C97.3555 77.512 95.7768 76.9573 94.5395 75.848C93.3448 74.696 92.7475 73.288 92.7475 71.624C92.7475 69.9173 93.3448 68.488 94.5395 67.336C95.7768 66.184 97.3555 65.608 99.2755 65.608C101.153 65.608 102.689 66.184 103.884 67.336C105.121 68.488 105.74 69.9173 105.74 71.624C105.74 73.288 105.121 74.696 103.884 75.848C102.689 76.9573 101.153 77.512 99.2755 77.512Z" fill="#0F0C27"/>
</svg>
